{
	"asset":{
		"generator":"Khronos glTF Blender I/O v5.0.21",
		"version":"2.0"
	},
	"scene":0,
	"scenes":[
		{
			"name":"Scene",
			"nodes":[
				0,
				22
			]
		}
	],
	"nodes":[
		{
			"name":"LineartStroke",
			"scale":[
				0.11905723810195923,
				0.11905723810195923,
				0.11905723810195923
			],
			"translation":[
				1.2822507619857788,
				-0.02175327204167843,
				-2.569946765899658
			]
		},
		{
			"name":"Tail.IK",
			"rotation":[
				0.8248645663261414,
				6.73926336958175e-08,
				9.833151182192523e-08,
				0.5653303861618042
			],
			"translation":[
				0,
				-0.09137541055679321,
				0.7708995342254639
			]
		},
		{
			"name":"Head.IK",
			"rotation":[
				0.9998950362205505,
				0.01360131986439228,
				1.1177408509865927e-07,
				0.00499566737562418
			],
			"scale":[
				1,
				0.9999998807907104,
				0.9999999403953552
			],
			"translation":[
				0,
				-1.0417218208312988,
				0.0025739483535289764
			]
		},
		{
			"name":"Tail.Pole",
			"rotation":[
				1,
				0,
				-4.331257628109597e-07,
				0
			],
			"translation":[
				0,
				-0.05429166555404663,
				0.3564927279949188
			]
		},
		{
			"name":"Head",
			"rotation":[
				9.31322685637781e-10,
				-1.4210854715202004e-14,
				1.9100439435862783e-16,
				1
			],
			"translation":[
				6.193333401682821e-09,
				0.20752519369125366,
				1.150512907166501e-09
			]
		},
		{
			"children":[
				4
			],
			"name":"Neck",
			"rotation":[
				-0.010084528475999832,
				7.549410696583436e-08,
				-7.613604191547552e-10,
				0.9999491572380066
			],
			"translation":[
				-1.4901164746561335e-08,
				0.2658863365650177,
				1.164159435518286e-09
			]
		},
		{
			"name":"Fore_leg.L",
			"rotation":[
				0.6027934551239014,
				0.06472437083721161,
				-0.08441303670406342,
				0.7907751202583313
			],
			"scale":[
				1,
				0.9999999403953552,
				0.9999998807907104
			],
			"translation":[
				0.045317038893699646,
				0.3418266773223877,
				0.19287621974945068
			]
		},
		{
			"name":"Fore_leg.R",
			"rotation":[
				0.6027934551239014,
				-0.06472437083721161,
				0.08441303670406342,
				0.7907751202583313
			],
			"scale":[
				1,
				0.9999999403953552,
				0.9999998807907104
			],
			"translation":[
				-0.0380028635263443,
				0.3418266773223877,
				0.19287621974945068
			]
		},
		{
			"children":[
				5,
				6,
				7
			],
			"name":"Torso",
			"rotation":[
				0.024051619693636894,
				-1.1917478559553274e-07,
				2.867174053733379e-09,
				0.999710738658905
			],
			"scale":[
				1,
				1,
				0.9999999403953552
			],
			"translation":[
				-3.181039653910034e-09,
				0.1919611245393753,
				-1.5119532292828808e-09
			]
		},
		{
			"children":[
				8
			],
			"name":"Waist",
			"rotation":[
				-0.00793349090963602,
				-4.9747363075735435e-14,
				-1.891490963856768e-09,
				0.9999685287475586
			],
			"scale":[
				1,
				0.9999999403953552,
				0.9999999403953552
			],
			"translation":[
				-4.282370458241758e-09,
				0.21323344111442566,
				-2.676120658406944e-09
			]
		},
		{
			"name":"Hind_leg.L",
			"rotation":[
				0.758795440196991,
				0.08258536458015442,
				-0.07015401124954224,
				0.6422519683837891
			],
			"scale":[
				0.9999999403953552,
				0.9999998807907104,
				0.9999998807907104
			],
			"translation":[
				0.042980071157217026,
				0.2807462215423584,
				0.18472985923290253
			]
		},
		{
			"name":"Hind_leg.R",
			"rotation":[
				0.7587953209877014,
				-0.08258549124002457,
				0.07015422731637955,
				0.6422520279884338
			],
			"scale":[
				1,
				1,
				0.9999998807907104
			],
			"translation":[
				-0.03566596284508705,
				0.2807462215423584,
				0.18472984433174133
			]
		},
		{
			"children":[
				9,
				10,
				11
			],
			"name":"TailBone",
			"rotation":[
				0.9999817609786987,
				7.195030682360937e-10,
				1.1920712239543718e-07,
				0.0060356296598911285
			],
			"scale":[
				1,
				1,
				0.9999998807907104
			]
		},
		{
			"name":"Tail.end",
			"rotation":[
				0.039897363632917404,
				1.1911789243868043e-07,
				4.843379475261145e-09,
				0.9992038011550903
			],
			"scale":[
				1,
				1.0000001192092896,
				1
			],
			"translation":[
				1.4865344510894829e-08,
				0.1388087123632431,
				-3.733805087335895e-08
			]
		},
		{
			"children":[
				13
			],
			"name":"Tail.3",
			"rotation":[
				0.1679292768239975,
				0.002798668574541807,
				0.011430218815803528,
				0.9857288599014282
			],
			"scale":[
				1,
				1,
				1.0000001192092896
			],
			"translation":[
				1.5133991837501526e-08,
				0.13202568888664246,
				-3.9595761336386204e-08
			]
		},
		{
			"children":[
				14
			],
			"name":"Tail.2",
			"rotation":[
				0.40681561827659607,
				0.0002611011441331357,
				-0.02039896883070469,
				0.9132824540138245
			],
			"scale":[
				1,
				0.9999999403953552,
				0.9999999403953552
			],
			"translation":[
				-9.66247171163559e-09,
				0.14412105083465576,
				-2.0081643015146255e-09
			]
		},
		{
			"children":[
				15
			],
			"name":"Tail.1",
			"rotation":[
				0.3412748873233795,
				-0.003783364547416568,
				0.009321640245616436,
				0.9399096965789795
			],
			"scale":[
				1,
				1,
				0.9999999403953552
			],
			"translation":[
				-0.0002015829086303711,
				0.0005214214324951172,
				-0.0004171803593635559
			]
		},
		{
			"children":[
				1,
				2,
				3,
				12,
				16
			],
			"name":"Root",
			"rotation":[
				-0.7071067690849304,
				0,
				0,
				0.7071067690849304
			],
			"translation":[
				-0.003657102584838867,
				0.03844263777136803,
				-0.505225658416748
			]
		},
		{
			"mesh":0,
			"name":"Body_remeshed",
			"skin":0
		},
		{
			"mesh":1,
			"name":"Expressions",
			"skin":0
		},
		{
			"mesh":2,
			"name":"Left Eye",
			"skin":0
		},
		{
			"mesh":3,
			"name":"Right Eye",
			"skin":0
		},
		{
			"children":[
				18,
				19,
				20,
				21,
				17
			],
			"name":"Grem_remshed",
			"translation":[
				-0.14135640859603882,
				0,
				0
			]
		}
	],
	"materials":[
		{
			"alphaMode":"BLEND",
			"doubleSided":true,
			"name":"Material.001",
			"pbrMetallicRoughness":{
				"baseColorTexture":{
					"index":0
				},
				"metallicFactor":0,
				"roughnessFactor":0.3290908932685852
			}
		},
		{
			"doubleSided":true,
			"name":"Material.002",
			"pbrMetallicRoughness":{
				"baseColorTexture":{
					"index":1
				},
				"metallicFactor":0,
				"roughnessFactor":0
			}
		},
		{
			"doubleSided":true,
			"name":"Material.009",
			"pbrMetallicRoughness":{
				"baseColorTexture":{
					"index":2
				},
				"metallicFactor":0,
				"roughnessFactor":0.5
			}
		}
	],
	"meshes":[
		{
			"name":"mesh",
			"primitives":[
				{
					"attributes":{
						"POSITION":0,
						"NORMAL":1,
						"TEXCOORD_0":2,
						"JOINTS_0":3,
						"WEIGHTS_0":4
					},
					"indices":5,
					"material":0
				}
			]
		},
		{
			"extras":{
				"targetNames":[
					"Yapper Open",
					": )",
					"Smirk",
					":P",
					"None"
				]
			},
			"name":"mesh.011",
			"primitives":[
				{
					"attributes":{
						"POSITION":7,
						"NORMAL":8,
						"TEXCOORD_0":9,
						"JOINTS_0":10,
						"WEIGHTS_0":11
					},
					"indices":12,
					"material":1,
					"targets":[
						{
							"POSITION":13,
							"NORMAL":14
						},
						{
							"POSITION":15,
							"NORMAL":16
						},
						{
							"POSITION":17,
							"NORMAL":18
						},
						{
							"POSITION":19,
							"NORMAL":20
						},
						{
							"POSITION":21,
							"NORMAL":22
						}
					]
				},
				{
					"attributes":{
						"POSITION":23,
						"NORMAL":24,
						"TEXCOORD_0":25,
						"JOINTS_0":26,
						"WEIGHTS_0":27
					},
					"indices":28,
					"material":2,
					"targets":[
						{
							"POSITION":29,
							"NORMAL":30
						},
						{
							"POSITION":31,
							"NORMAL":32
						},
						{
							"POSITION":33,
							"NORMAL":34
						},
						{
							"POSITION":35,
							"NORMAL":36
						},
						{
							"POSITION":37,
							"NORMAL":38
						}
					]
				}
			],
			"weights":[
				0,
				0,
				0,
				0,
				0
			]
		},
		{
			"extras":{
				"targetNames":[
					"Blink"
				]
			},
			"name":"Cube.002",
			"primitives":[
				{
					"attributes":{
						"POSITION":39,
						"NORMAL":40,
						"TEXCOORD_0":41,
						"JOINTS_0":42,
						"WEIGHTS_0":43
					},
					"indices":44,
					"material":1,
					"targets":[
						{
							"POSITION":45,
							"NORMAL":46
						}
					]
				}
			],
			"weights":[
				0
			]
		},
		{
			"extras":{
				"targetNames":[
					"Blink"
				]
			},
			"name":"Circle.001",
			"primitives":[
				{
					"attributes":{
						"POSITION":47,
						"NORMAL":48,
						"TEXCOORD_0":49,
						"JOINTS_0":50,
						"WEIGHTS_0":51
					},
					"indices":52,
					"material":1,
					"targets":[
						{
							"POSITION":53,
							"NORMAL":54
						}
					]
				}
			],
			"weights":[
				0
			]
		}
	],
	"textures":[
		{
			"sampler":0,
			"source":0
		},
		{
			"sampler":1,
			"source":1
		},
		{
			"sampler":1,
			"source":2
		}
	],
	"images":[
		{
			"mimeType":"image/png",
			"name":"Smaller Quad Base color-Body Base Color",
			"uri":"Smaller%20Quad%20Base%20color-Body%20Base%20Color.png"
		},
		{
			"mimeType":"image/png",
			"name":"Mouth Open",
			"uri":"Mouth%20Open.png"
		},
		{
			"mimeType":"image/png",
			"name":"Mouth Open Base Color",
			"uri":"Mouth%20Open%20Base%20Color.png"
		}
	],
	"skins":[
		{
			"inverseBindMatrices":6,
			"joints":[
				17,
				1,
				2,
				3,
				12,
				9,
				8,
				5,
				4,
				6,
				7,
				10,
				11,
				16,
				15,
				14,
				13
			],
			"name":"Grem_remshed"
		}
	],
	"accessors":[
		{
			"bufferView":0,
			"componentType":5126,
			"count":4289,
			"max":[
				0.08110161125659943,
				0.9262369275093079,
				0.5405291318893433
			],
			"min":[
				-0.3506222367286682,
				-0.24230636656284332,
				-0.6841310858726501
			],
			"type":"VEC3"
		},
		{
			"bufferView":1,
			"componentType":5126,
			"count":4289,
			"type":"VEC3"
		},
		{
			"bufferView":2,
			"componentType":5126,
			"count":4289,
			"type":"VEC2"
		},
		{
			"bufferView":3,
			"componentType":5121,
			"count":4289,
			"type":"VEC4"
		},
		{
			"bufferView":4,
			"componentType":5126,
			"count":4289,
			"type":"VEC4"
		},
		{
			"bufferView":5,
			"componentType":5123,
			"count":20088,
			"type":"SCALAR"
		},
		{
			"bufferView":6,
			"componentType":5126,
			"count":17,
			"type":"MAT4"
		},
		{
			"bufferView":7,
			"componentType":5126,
			"count":4020,
			"max":[
				-0.06343917548656464,
				0.092727892100811,
				0.5423961281776428
			],
			"min":[
				-0.23662349581718445,
				-0.052271611988544464,
				0.4502175450325012
			],
			"type":"VEC3"
		},
		{
			"bufferView":8,
			"componentType":5126,
			"count":4020,
			"type":"VEC3"
		},
		{
			"bufferView":9,
			"componentType":5126,
			"count":4020,
			"type":"VEC2"
		},
		{
			"bufferView":10,
			"componentType":5121,
			"count":4020,
			"type":"VEC4"
		},
		{
			"bufferView":11,
			"componentType":5126,
			"count":4020,
			"type":"VEC4"
		},
		{
			"bufferView":12,
			"componentType":5123,
			"count":19398,
			"type":"SCALAR"
		},
		{
			"componentType":5126,
			"count":4020,
			"max":[
				0.0074452683329582214,
				0.0028069093823432922,
				0.09624332189559937
			],
			"min":[
				-0.0018580257892608643,
				-0.005491308867931366,
				-0.10014042258262634
			],
			"sparse":{
				"count":2618,
				"indices":{
					"bufferView":13,
					"componentType":5123
				},
				"values":{
					"bufferView":14
				}
			},
			"type":"VEC3"
		},
		{
			"bufferView":15,
			"componentType":5126,
			"count":4020,
			"type":"VEC3"
		},
		{
			"componentType":5126,
			"count":4020,
			"max":[
				0.012278571724891663,
				0.006078105419874191,
				0.0748019814491272
			],
			"min":[
				-0.03934729844331741,
				-0.026978738605976105,
				-0.10155034065246582
			],
			"sparse":{
				"count":1402,
				"indices":{
					"bufferView":16,
					"componentType":5123
				},
				"values":{
					"bufferView":17
				}
			},
			"type":"VEC3"
		},
		{
			"bufferView":18,
			"componentType":5126,
			"count":4020,
			"type":"VEC3"
		},
		{
			"componentType":5126,
			"count":4020,
			"max":[
				0.009361311793327332,
				0.018095694482326508,
				0.06923109292984009
			],
			"min":[
				-0.0095137357711792,
				-3.725290298461914e-09,
				-0.10787057876586914
			],
			"sparse":{
				"count":1930,
				"indices":{
					"bufferView":19,
					"componentType":5123
				},
				"values":{
					"bufferView":20
				}
			},
			"type":"VEC3"
		},
		{
			"bufferView":21,
			"componentType":5126,
			"count":4020,
			"type":"VEC3"
		},
		{
			"componentType":5126,
			"count":4020,
			"max":[
				0.0012806951999664307,
				0.02301996573805809,
				0.00498044490814209
			],
			"min":[
				-0.0007963180541992188,
				0,
				0
			],
			"sparse":{
				"count":965,
				"indices":{
					"bufferView":22,
					"componentType":5123
				},
				"values":{
					"bufferView":23
				}
			},
			"type":"VEC3"
		},
		{
			"bufferView":24,
			"componentType":5126,
			"count":4020,
			"type":"VEC3"
		},
		{
			"componentType":5126,
			"count":4020,
			"max":[
				1.4901161193847656e-08,
				3.725290298461914e-09,
				0
			],
			"min":[
				-1.4901161193847656e-08,
				-3.725290298461914e-09,
				-0.10876455903053284
			],
			"sparse":{
				"count":965,
				"indices":{
					"bufferView":25,
					"componentType":5123
				},
				"values":{
					"bufferView":26
				}
			},
			"type":"VEC3"
		},
		{
			"bufferView":27,
			"componentType":5126,
			"count":4020,
			"type":"VEC3"
		},
		{
			"bufferView":28,
			"componentType":5126,
			"count":1434,
			"max":[
				-0.0816972553730011,
				0.07692281901836395,
				0.4880995452404022
			],
			"min":[
				-0.21587446331977844,
				-0.05097495764493942,
				0.44461289048194885
			],
			"type":"VEC3"
		},
		{
			"bufferView":29,
			"componentType":5126,
			"count":1434,
			"type":"VEC3"
		},
		{
			"bufferView":30,
			"componentType":5126,
			"count":1434,
			"type":"VEC2"
		},
		{
			"bufferView":31,
			"componentType":5121,
			"count":1434,
			"type":"VEC4"
		},
		{
			"bufferView":32,
			"componentType":5126,
			"count":1434,
			"type":"VEC4"
		},
		{
			"bufferView":33,
			"componentType":5123,
			"count":7128,
			"type":"SCALAR"
		},
		{
			"componentType":5126,
			"count":1434,
			"max":[
				0.007364429533481598,
				0.00343400239944458,
				0.09436678886413574
			],
			"min":[
				-0.0016359388828277588,
				-0.004923541098833084,
				0
			],
			"sparse":{
				"count":717,
				"indices":{
					"bufferView":34,
					"componentType":5123
				},
				"values":{
					"bufferView":35
				}
			},
			"type":"VEC3"
		},
		{
			"bufferView":36,
			"componentType":5126,
			"count":1434,
			"type":"VEC3"
		},
		{
			"componentType":5126,
			"count":1434,
			"max":[
				0,
				0,
				0
			],
			"min":[
				0,
				0,
				0
			],
			"sparse":{
				"count":1,
				"indices":{
					"bufferView":37,
					"componentType":5121
				},
				"values":{
					"bufferView":38
				}
			},
			"type":"VEC3"
		},
		{
			"bufferView":39,
			"componentType":5126,
			"count":1434,
			"type":"VEC3"
		},
		{
			"componentType":5126,
			"count":1434,
			"max":[
				0.004601001739501953,
				0.0003283768892288208,
				0.0012455582618713379
			],
			"min":[
				-0.0011626332998275757,
				-0.013612687587738037,
				-0.001257389783859253
			],
			"sparse":{
				"count":322,
				"indices":{
					"bufferView":40,
					"componentType":5123
				},
				"values":{
					"bufferView":41
				}
			},
			"type":"VEC3"
		},
		{
			"bufferView":42,
			"componentType":5126,
			"count":1434,
			"type":"VEC3"
		},
		{
			"componentType":5126,
			"count":1434,
			"max":[
				0,
				0,
				0.0562596321105957
			],
			"min":[
				-0.005608603358268738,
				-0.014422088861465454,
				0
			],
			"sparse":{
				"count":717,
				"indices":{
					"bufferView":43,
					"componentType":5123
				},
				"values":{
					"bufferView":44
				}
			},
			"type":"VEC3"
		},
		{
			"bufferView":45,
			"componentType":5126,
			"count":1434,
			"type":"VEC3"
		},
		{
			"componentType":5126,
			"count":1434,
			"max":[
				0,
				0,
				0
			],
			"min":[
				0,
				0,
				0
			],
			"sparse":{
				"count":1,
				"indices":{
					"bufferView":46,
					"componentType":5121
				},
				"values":{
					"bufferView":47
				}
			},
			"type":"VEC3"
		},
		{
			"bufferView":48,
			"componentType":5126,
			"count":1434,
			"type":"VEC3"
		},
		{
			"bufferView":49,
			"componentType":5126,
			"count":104,
			"max":[
				0.008414549753069878,
				0.14643996953964233,
				0.500429630279541
			],
			"min":[
				-0.08141809701919556,
				0.04251190274953842,
				0.4089168310165405
			],
			"type":"VEC3"
		},
		{
			"bufferView":50,
			"componentType":5126,
			"count":104,
			"type":"VEC3"
		},
		{
			"bufferView":51,
			"componentType":5126,
			"count":104,
			"type":"VEC2"
		},
		{
			"bufferView":52,
			"componentType":5121,
			"count":104,
			"type":"VEC4"
		},
		{
			"bufferView":53,
			"componentType":5126,
			"count":104,
			"type":"VEC4"
		},
		{
			"bufferView":54,
			"componentType":5123,
			"count":420,
			"type":"SCALAR"
		},
		{
			"bufferView":55,
			"componentType":5126,
			"count":104,
			"max":[
				6.483122706413269e-05,
				0.04142618179321289,
				0.0034390687942504883
			],
			"min":[
				-6.587430834770203e-05,
				-0.04077083617448807,
				-0.003494352102279663
			],
			"type":"VEC3"
		},
		{
			"bufferView":56,
			"componentType":5126,
			"count":104,
			"type":"VEC3"
		},
		{
			"bufferView":57,
			"componentType":5126,
			"count":64,
			"max":[
				-0.26134786009788513,
				0.12823916971683502,
				0.5010418891906738
			],
			"min":[
				-0.312264084815979,
				0.053406327962875366,
				0.43683987855911255
			],
			"type":"VEC3"
		},
		{
			"bufferView":58,
			"componentType":5126,
			"count":64,
			"type":"VEC3"
		},
		{
			"bufferView":59,
			"componentType":5126,
			"count":64,
			"type":"VEC2"
		},
		{
			"bufferView":60,
			"componentType":5121,
			"count":64,
			"type":"VEC4"
		},
		{
			"bufferView":61,
			"componentType":5126,
			"count":64,
			"type":"VEC4"
		},
		{
			"bufferView":62,
			"componentType":5123,
			"count":372,
			"type":"SCALAR"
		},
		{
			"bufferView":63,
			"componentType":5126,
			"count":64,
			"max":[
				0.004804491996765137,
				0.03317280113697052,
				0.004303067922592163
			],
			"min":[
				-0.004805505275726318,
				-0.03316587954759598,
				-0.004303932189941406
			],
			"type":"VEC3"
		},
		{
			"bufferView":64,
			"componentType":5126,
			"count":64,
			"type":"VEC3"
		}
	],
	"bufferViews":[
		{
			"buffer":0,
			"byteLength":51468,
			"byteOffset":0,
			"target":34962
		},
		{
			"buffer":0,
			"byteLength":51468,
			"byteOffset":51468,
			"target":34962
		},
		{
			"buffer":0,
			"byteLength":34312,
			"byteOffset":102936,
			"target":34962
		},
		{
			"buffer":0,
			"byteLength":17156,
			"byteOffset":137248,
			"target":34962
		},
		{
			"buffer":0,
			"byteLength":68624,
			"byteOffset":154404,
			"target":34962
		},
		{
			"buffer":0,
			"byteLength":40176,
			"byteOffset":223028,
			"target":34963
		},
		{
			"buffer":0,
			"byteLength":1088,
			"byteOffset":263204
		},
		{
			"buffer":0,
			"byteLength":48240,
			"byteOffset":264292,
			"target":34962
		},
		{
			"buffer":0,
			"byteLength":48240,
			"byteOffset":312532,
			"target":34962
		},
		{
			"buffer":0,
			"byteLength":32160,
			"byteOffset":360772,
			"target":34962
		},
		{
			"buffer":0,
			"byteLength":16080,
			"byteOffset":392932,
			"target":34962
		},
		{
			"buffer":0,
			"byteLength":64320,
			"byteOffset":409012,
			"target":34962
		},
		{
			"buffer":0,
			"byteLength":38796,
			"byteOffset":473332,
			"target":34963
		},
		{
			"buffer":0,
			"byteLength":5236,
			"byteOffset":512128
		},
		{
			"buffer":0,
			"byteLength":31416,
			"byteOffset":517364
		},
		{
			"buffer":0,
			"byteLength":48240,
			"byteOffset":548780,
			"target":34962
		},
		{
			"buffer":0,
			"byteLength":2804,
			"byteOffset":597020
		},
		{
			"buffer":0,
			"byteLength":16824,
			"byteOffset":599824
		},
		{
			"buffer":0,
			"byteLength":48240,
			"byteOffset":616648,
			"target":34962
		},
		{
			"buffer":0,
			"byteLength":3860,
			"byteOffset":664888
		},
		{
			"buffer":0,
			"byteLength":23160,
			"byteOffset":668748
		},
		{
			"buffer":0,
			"byteLength":48240,
			"byteOffset":691908,
			"target":34962
		},
		{
			"buffer":0,
			"byteLength":1930,
			"byteOffset":740148
		},
		{
			"buffer":0,
			"byteLength":11580,
			"byteOffset":742080
		},
		{
			"buffer":0,
			"byteLength":48240,
			"byteOffset":753660,
			"target":34962
		},
		{
			"buffer":0,
			"byteLength":1930,
			"byteOffset":801900
		},
		{
			"buffer":0,
			"byteLength":11580,
			"byteOffset":803832
		},
		{
			"buffer":0,
			"byteLength":48240,
			"byteOffset":815412,
			"target":34962
		},
		{
			"buffer":0,
			"byteLength":17208,
			"byteOffset":863652,
			"target":34962
		},
		{
			"buffer":0,
			"byteLength":17208,
			"byteOffset":880860,
			"target":34962
		},
		{
			"buffer":0,
			"byteLength":11472,
			"byteOffset":898068,
			"target":34962
		},
		{
			"buffer":0,
			"byteLength":5736,
			"byteOffset":909540,
			"target":34962
		},
		{
			"buffer":0,
			"byteLength":22944,
			"byteOffset":915276,
			"target":34962
		},
		{
			"buffer":0,
			"byteLength":14256,
			"byteOffset":938220,
			"target":34963
		},
		{
			"buffer":0,
			"byteLength":1434,
			"byteOffset":952476
		},
		{
			"buffer":0,
			"byteLength":8604,
			"byteOffset":953912
		},
		{
			"buffer":0,
			"byteLength":17208,
			"byteOffset":962516,
			"target":34962
		},
		{
			"buffer":0,
			"byteLength":1,
			"byteOffset":979724
		},
		{
			"buffer":0,
			"byteLength":12,
			"byteOffset":979728
		},
		{
			"buffer":0,
			"byteLength":17208,
			"byteOffset":979740,
			"target":34962
		},
		{
			"buffer":0,
			"byteLength":644,
			"byteOffset":996948
		},
		{
			"buffer":0,
			"byteLength":3864,
			"byteOffset":997592
		},
		{
			"buffer":0,
			"byteLength":17208,
			"byteOffset":1001456,
			"target":34962
		},
		{
			"buffer":0,
			"byteLength":1434,
			"byteOffset":1018664
		},
		{
			"buffer":0,
			"byteLength":8604,
			"byteOffset":1020100
		},
		{
			"buffer":0,
			"byteLength":17208,
			"byteOffset":1028704,
			"target":34962
		},
		{
			"buffer":0,
			"byteLength":1,
			"byteOffset":1045912
		},
		{
			"buffer":0,
			"byteLength":12,
			"byteOffset":1045916
		},
		{
			"buffer":0,
			"byteLength":17208,
			"byteOffset":1045928,
			"target":34962
		},
		{
			"buffer":0,
			"byteLength":1248,
			"byteOffset":1063136,
			"target":34962
		},
		{
			"buffer":0,
			"byteLength":1248,
			"byteOffset":1064384,
			"target":34962
		},
		{
			"buffer":0,
			"byteLength":832,
			"byteOffset":1065632,
			"target":34962
		},
		{
			"buffer":0,
			"byteLength":416,
			"byteOffset":1066464,
			"target":34962
		},
		{
			"buffer":0,
			"byteLength":1664,
			"byteOffset":1066880,
			"target":34962
		},
		{
			"buffer":0,
			"byteLength":840,
			"byteOffset":1068544,
			"target":34963
		},
		{
			"buffer":0,
			"byteLength":1248,
			"byteOffset":1069384,
			"target":34962
		},
		{
			"buffer":0,
			"byteLength":1248,
			"byteOffset":1070632,
			"target":34962
		},
		{
			"buffer":0,
			"byteLength":768,
			"byteOffset":1071880,
			"target":34962
		},
		{
			"buffer":0,
			"byteLength":768,
			"byteOffset":1072648,
			"target":34962
		},
		{
			"buffer":0,
			"byteLength":512,
			"byteOffset":1073416,
			"target":34962
		},
		{
			"buffer":0,
			"byteLength":256,
			"byteOffset":1073928,
			"target":34962
		},
		{
			"buffer":0,
			"byteLength":1024,
			"byteOffset":1074184,
			"target":34962
		},
		{
			"buffer":0,
			"byteLength":744,
			"byteOffset":1075208,
			"target":34963
		},
		{
			"buffer":0,
			"byteLength":768,
			"byteOffset":1075952,
			"target":34962
		},
		{
			"buffer":0,
			"byteLength":768,
			"byteOffset":1076720,
			"target":34962
		}
	],
	"samplers":[
		{
			"magFilter":9728,
			"minFilter":9984
		},
		{
			"magFilter":9729,
			"minFilter":9987
		}
	],
	"buffers":[
		{
			"byteLength":1077488,
			"uri":"grem.bin"
		}
	]
}
